<?xml version="1.0" standalone="no"?>
<svg viewBox="0 0 200 200" xmlns="http://www.w3.org/2000/svg">
  <path fill="#A0C8DD" d="M31.5,-54.6C40.6,-49.4,47.5,-40.4,54.8,-30.7C62.2,-20.9,70.1,-10.5,73.3,1.9C76.5,14.2,75.2,28.4,67.5,37.6C59.8,46.8,45.8,51,33.5,59.4C21.2,67.9,10.6,80.6,0,80.6C-10.5,80.5,-21.1,67.6,-33.7,59.4C-46.4,51.1,-61.3,47.5,-72.5,38.4C-83.8,29.3,-91.4,14.6,-89.9,0.9C-88.3,-12.9,-77.6,-25.7,-67.5,-36.8C-57.3,-47.8,-47.8,-57.1,-36.7,-61.1C-25.5,-65,-12.8,-63.7,-0.8,-62.4C11.2,-61,22.5,-59.7,31.5,-54.6Z" transform="translate(100 100)" />
</svg>
